<svg width="30" height="25" viewBox="0 0 30 25" fill="none" xmlns="http://www.w3.org/2000/svg">
<path d="M4.05556 6.31967C4.83981 5.86366 6.02202 5.95111 6.72618 6.43489L5.91857 5.45831C5.26865 4.68718 5.50142 3.85289 6.42917 3.3115C7.35691 2.77219 9.98582 4.22214 9.98582 4.22214C9.33005 3.44338 9.45269 2.45638 10.3888 1.91014C11.3249 1.36597 12.6164 1.55407 13.2721 2.33422L21.9656 12.5512L20.8577 21.4876L11.611 18.6821L3.5458 8.73371C2.8842 7.95009 3.1128 6.86939 4.05556 6.31967Z" fill="#EF9645"/>
<path d="M2.24846 12.0035C2.24846 12.0035 1.30403 10.8583 2.68147 10.0733C4.05724 9.28828 5.00084 10.4328 5.00084 10.4328L9.38178 15.7482C9.53279 15.5385 9.69799 15.3317 9.88237 15.1276L3.80194 7.75157C3.80194 7.75157 2.85834 6.60702 4.23495 5.822C5.61072 5.03699 6.55432 6.18154 6.55432 6.18154L12.2735 13.1203C12.4862 12.976 12.704 12.8309 12.9284 12.6886L6.29818 4.64344C6.29818 4.64344 5.35458 3.49889 6.73119 2.71388C8.10696 1.92887 9.05056 3.07342 9.05056 3.07342L15.6808 11.1172C15.9244 10.993 16.1655 10.8854 16.4075 10.7715L10.2102 3.25319C10.2102 3.25319 9.26665 2.10863 10.6424 1.32362C12.0182 0.538609 12.9618 1.68316 12.9618 1.68316L19.5144 9.63324L20.5106 10.8423C16.3825 13.1981 15.9895 17.6298 18.3481 20.4915C18.8195 21.0642 19.5078 20.672 19.5078 20.672C16.677 17.237 17.5413 13.3771 21.6703 11.0221L20.453 5.95388C20.453 5.95388 19.9983 4.61846 21.6027 4.23948C23.2079 3.86121 23.6634 5.19663 23.6634 5.19663L25.0693 8.66984C25.6266 10.0469 26.2198 11.4191 27.0048 12.7171C29.2216 16.3819 27.8976 20.9365 23.7177 23.322C19.1582 25.9228 12.9251 24.9559 9.7981 21.1634L2.24846 12.0035Z" fill="#FFDC5D"/>
<path d="M10.0117 22.2108C6.67446 22.2108 3.30219 19.4053 3.30219 16.629C3.30219 16.2451 2.96429 15.9349 2.50292 15.9349C2.04155 15.9349 1.63358 16.2451 1.63358 16.629C1.63358 20.7935 5.00584 23.599 10.0117 23.599C10.4731 23.599 10.846 23.2596 10.846 22.8758C10.846 22.4919 10.4731 22.2108 10.0117 22.2108Z" fill="#5DADEC"/>
<path d="M5.84015 23.5698C3.33723 23.5698 1.66861 22.1816 1.66861 20.0994C1.66861 19.7155 1.29568 19.4053 0.834307 19.4053C0.372935 19.4053 0 19.7155 0 20.0994C0 22.8757 2.50292 24.958 5.84015 24.958C6.30152 24.958 6.67445 24.6477 6.67445 24.2639C6.67445 23.8801 6.30152 23.5698 5.84015 23.5698ZM20.0234 1.35901C19.5628 1.35901 19.1891 1.66996 19.1891 2.0531C19.1891 2.43623 19.5628 2.74718 20.0234 2.74718C23.3606 2.74718 26.6978 5.23826 26.6978 8.29988C26.6978 8.68302 27.0716 8.99397 27.5321 8.99397C27.9927 8.99397 28.3664 8.68302 28.3664 8.29988C28.3664 4.47269 25.0292 1.35901 20.0234 1.35901Z" fill="#5DADEC"/>
<path d="M24.1949 0C23.7344 0 23.3606 0.2818 23.3606 0.664936C23.3606 1.04807 23.7344 1.38818 24.1949 1.38818C26.6978 1.38818 28.3314 2.93252 28.3314 4.82946C28.3314 5.2126 28.7394 5.52355 29.2007 5.52355C29.6621 5.52355 30 5.2126 30 4.82946C30 2.16625 27.5321 0 24.1949 0Z" fill="#5DADEC"/>
</svg>
