<svg width="800" height="800" viewBox="0 0 800 800" fill="none" xmlns="http://www.w3.org/2000/svg">
<g clip-path="url(#clip0_4_42)">
<path d="M600 666.667L700 700L636.667 510C636.667 510 666.667 466.667 666.667 383.333C666.667 296.769 627.847 219.272 566.667 167.301M383.333 100C226.853 100 100 226.853 100 383.333C100 539.813 226.853 666.667 383.333 666.667C469.49 666.667 510 636.667 510 636.667" stroke="black" stroke-width="50" stroke-linecap="round" stroke-linejoin="round"/>
<path d="M439.396 312.729C451.16 315.024 462.837 320.212 471.313 328.687C479.788 337.163 484.976 348.84 487.271 360.604M447.375 256.875C471.815 259.59 493.809 271.414 511.208 288.792C528.608 306.169 540.379 328.188 543.125 352.625M511.63 544.013C528.319 545.518 543.182 531.714 543.115 515.183V471.941C543.291 464.871 540.857 457.984 536.277 452.59C523.361 437.375 479.06 427.642 461.5 431.379C447.811 434.293 438.234 448.037 428.871 457.382C412.366 448.014 397.156 436.697 383.542 423.729M342.213 370.894C351.576 361.55 365.347 351.992 368.266 338.331C372.005 320.832 362.287 276.815 347.178 263.846C341.863 259.285 335.068 256.807 328.059 256.876H284.729C268.22 256.892 254.485 271.699 255.988 288.3C255.892 409.239 335.688 508.504 447.375 536.262" stroke="black" stroke-width="30" stroke-linecap="round" stroke-linejoin="round"/>
</g>
<defs>
<clipPath id="clip0_4_42">
<rect width="800" height="800" fill="white"/>
</clipPath>
</defs>
</svg>
